<?xml version="1.0" encoding="UTF-8"?>
<svg id="Layer_1" xmlns="http://www.w3.org/2000/svg" viewBox="0 0 258.22 42.87">
  <polygon points="52.11 42.87 45.38 41.85 87.05 25.09 52.11 42.87" fill="#065163"/>
  <polygon points="45.38 41.85 32.39 39.97 87.05 25.09 45.38 41.85" fill="#0a9aca"/>
  <polygon points="32.39 39.97 21.33 38.37 87.05 25.09 32.39 39.97" fill="#f15922"/>
  <polygon points="87.05 25.09 5.26 36.05 0 35.32 87.05 25.09" fill="#1a351a"/>
  <polygon points="87.05 25.09 21.33 38.37 12.18 37.05 87.05 25.09" fill="#ab509f"/>
  <polygon points="87.05 25.09 12.18 37.05 5.26 36.05 87.05 25.09" fill="#0a9246"/>
  <path d="M87.51,4.32c0,1.55-.83,3.35-2.38,3.38-.82.02-2.14-1.18-2.14-2.73s.6-2.87,2.14-2.87,2.38.67,2.38,2.22Z"/>
  <path d="M92.46,18.11c.56,0,1.15.39,1.15,1.15,0,1.88-.5,3.3-1.68,5.4-.22.36-.56.5-.87.5-.56,0-1.06-.42-1.06-1.01,0-.14.03-.34.14-.53.92-1.65,1.15-2.8,1.15-4.37,0-.76.59-1.15,1.18-1.15ZM90.81,14.73c-.42,0-.73-.39-.73-.78,0-1.09,5.26-2.41,6.75-2.41,2.32,0,4,1.68,4,3.98,0,2.86-1.26,6.19-2.35,8.96-.2.5-.59.7-.95.7-.59,0-1.15-.42-1.15-1.06,0-.14.03-.28.11-.45.98-2.58,1.88-5.6,1.88-8.26,0-.87-.39-2.02-1.85-2.02-1.37,0-3.56.59-5.4,1.29-.11.03-.2.06-.31.06Z" fill="#fff"/>
  <path d="M114.25,12.46c.17-1.32.31-2.13,1.34-2.13.64,0,1.26.42,1.26,1.2v.36c.95-.25,1.82-.36,2.58-.36,2.35,0,4,1.68,4,3.98,0,2.86-1.26,6.19-2.32,8.96-.2.5-.59.7-.95.7-.59,0-1.15-.42-1.15-1.06,0-.14.03-.28.08-.45.98-2.58,1.88-5.6,1.88-8.26,0-.87-.36-2.02-1.82-2.02-.67,0-1.51.08-2.58.31-1.79,12.66-3.44,15.43-9.77,15.43-.45,0-.7-.34-.7-.67,0-.36.25-.7.7-.7,5.66,0,6.24-5.1,7.22-13.36-.45.17-1.12.5-1.48.5-.42,0-.73-.39-.73-.81,0-.73,1.62-1.12,2.38-1.37,0-.11.06-.17.06-.25Z" fill="#fff"/>
  <path d="M128.64,11.53c.62,0,1.26.42,1.26,1.2v.14c-.14,1.48-.34,2.77-.56,3.98l.2-.14c2.41-1.68,4.68-2.63,5.32-4.73.2-.53.62-.78,1.06-.78.56,0,1.15.42,1.15,1.06,0,.14-.03.28-.06.42-.76,2.49-3.84,3.36-6.47,5.21,2.18,4.9,3.44,4.96,4.54,4.96.76,0,1.23.5,1.23,1.18,0,.56-.39,1.12-1.18,1.12-1.43,0-2.97-.03-6.05-6.92-.48,1.93-1.06,4.03-1.88,6.24-.17.53-.59.73-.98.73-.59,0-1.15-.39-1.15-1.04,0-.11,0-.25.08-.39,1.37-3.84,1.88-6.75,2.27-11.12.06-.76.64-1.12,1.2-1.12Z" fill="#fff"/>
  <path d="M78.96.25c.62,0,1.02.74,1.02,1.52l.08,1.44c-.25,1.02,4.33,6.58,4.11,7.78l.2-.14c2.41-1.68,4.32-2.57,4.97-4.67.2-.53.3-1.95,1.48-2.01.56-.03,1.15.42,1.15,1.06,0,.14-.03.28-.06.42-.76,2.49-3.89,4.53-6.53,6.37,2.18,4.9-.27,11.57.82,11.57.76,0,1.02.43,1.03.69.03.56-.36.77-.64.77-.71.02-1.71-.08-1.82-2.4s.68-6.85-.86-10.3c-.25,1-2.5,3.56-4.02,7.15-1.13,2.69-2.74,8.63-3.13,9.7-.17.53-.59.73-.98.73-.59,0-1.4-.37-1.22-.99.28-.99.64-.44,1.1-.98.3-.85,1.53-5.72,2.7-8.49,2.9-6.92,4.54-5.86,3.8-9.12-.66-2.92-4.61-6.82-4.42-9,.06-.76.64-1.12,1.2-1.12Z" fill="#fff" stroke="#fff" stroke-miterlimit="10" stroke-width=".5"/>
  <path d="M149.72,12.46c.17-1.32.31-2.13,1.34-2.13.64,0,1.26.42,1.26,1.2v.36c.95-.25,1.82-.36,2.58-.36,2.35,0,4,1.68,4,3.98,0,2.86-1.26,6.19-2.32,8.96-.2.5-.59.7-.95.7-.59,0-1.15-.42-1.15-1.06,0-.14.03-.28.08-.45.98-2.58,1.88-5.6,1.88-8.26,0-.87-.36-2.02-1.82-2.02-.67,0-1.51.08-2.58.31-1.79,12.66-3.44,15.43-9.77,15.43-.45,0-.7-.34-.7-.67,0-.36.25-.7.7-.7,5.66,0,6.24-5.1,7.22-13.36-.45.17-1.12.5-1.48.5-.42,0-.73-.39-.73-.81,0-.73,1.62-1.12,2.38-1.37,0-.11.06-.17.06-.25Z" fill="#fff"/>
  <path d="M164.14,11.53c.62,0,1.26.42,1.26,1.2v.14c-.45,4.62-1.26,7.62-2.69,11.59-.17.53-.59.73-.98.73-.59,0-1.12-.39-1.12-1.04,0-.11,0-.25.06-.39,1.37-3.84,1.88-6.75,2.27-11.12.06-.76.64-1.12,1.2-1.12Z" fill="#fff"/>
  <path d="M171.96,8.09c.98-3.11,3.33-7.59,7.08-7.59.62,0,2.07.14,2.07.98,0,.42-.31.81-.73.81s-.81-.22-1.2-.22c-2.8,0-4.48,4.48-5.12,6.66-.87,2.86-3.05,14.11-4.09,15.68-.31.42-.78.67-1.29.67-1.79,0-2.58-2.24-2.58-3.72,0-2.49,1.74-3.44,3.75-4.4.67-2.97,1.2-5.99,2.1-8.88ZM169.72,17.61c-1.62,1.06-1.99,2.38-1.99,3.42,0,1.2.5,1.68.56,1.71.42-.76.9-2.77,1.43-5.12Z" fill="#fff"/>
  <path d="M179.21,12.07c0-.64.59-1.09,1.2-1.09.39,0,.78.22,1.01.76.59,1.54.7,2.55,1.85,3.39.34.22.53.5.53.78,0,.34-.28.64-.78.81-4.51,1.37-7.28,2.63-7.28,5.32,0,1.32,1.37,1.74,2.97,1.74.73,0,1.51-.2,2.24-.2.5,0,.76.36.76.78,0,.95-2.18.98-3.25.98h-.17c-3.02,0-5.01-1.09-5.01-3.33,0-3.47,3.98-4.68,7.9-5.91-.56-.39-1.06-1.46-1.88-3.58-.06-.14-.08-.31-.08-.45Z" fill="#fff"/>
  <path d="M189.29,8.09c.98-3.11,3.33-7.59,7.08-7.59.62,0,2.07.14,2.07.98,0,.42-.31.81-.73.81s-.81-.22-1.2-.22c-2.8,0-4.48,4.48-5.12,6.66-.87,2.86-3.05,14.11-4.09,15.68-.31.42-.78.67-1.29.67-1.79,0-2.58-2.24-2.58-3.72,0-2.49,1.74-3.44,3.75-4.4.67-2.97,1.2-5.99,2.1-8.88ZM187.05,17.61c-1.62,1.06-1.99,2.38-1.99,3.42,0,1.2.5,1.68.56,1.71.42-.76.9-2.77,1.43-5.12Z" fill="#fff"/>
  <path d="M203.59,12.46c.17-1.32.31-2.13,1.34-2.13.64,0,1.26.42,1.26,1.2v.36c.95-.25,1.82-.36,2.58-.36,2.35,0,4,1.68,4,3.98,0,2.86-1.26,6.19-2.32,8.96-.2.5-.59.7-.95.7-.59,0-1.15-.42-1.15-1.06,0-.14.03-.28.08-.45.98-2.58,1.88-5.6,1.88-8.26,0-.87-.36-2.02-1.82-2.02-.67,0-1.51.08-2.58.31-1.79,12.66-3.44,15.43-9.77,15.43-.45,0-.7-.34-.7-.67,0-.36.25-.7.7-.7,5.66,0,6.24-5.1,7.22-13.36-.45.17-1.12.5-1.48.5-.42,0-.73-.39-.73-.81,0-.73,1.62-1.12,2.38-1.37,0-.11.06-.17.06-.25Z" fill="#fff"/>
  <path d="M216.95,12.46c.17-1.32.31-2.13,1.34-2.13.64,0,1.26.42,1.26,1.2v.36c.95-.25,1.82-.36,2.58-.36,2.35,0,4,1.68,4,3.98,0,2.86-1.26,6.19-2.32,8.96-.2.5-.59.7-.95.7-.59,0-1.15-.42-1.15-1.06,0-.14.03-.28.08-.45.98-2.58,1.88-5.6,1.88-8.26,0-.87-.36-2.02-1.82-2.02-.67,0-1.51.08-2.58.31-1.79,12.66-3.44,15.43-9.77,15.43-.45,0-.7-.34-.7-.67,0-.36.25-.7.7-.7,5.66,0,6.24-5.1,7.22-13.36-.45.17-1.12.5-1.48.5-.42,0-.73-.39-.73-.81,0-.73,1.62-1.12,2.38-1.37,0-.11.06-.17.06-.25Z" fill="#fff"/>
  <path d="M231.37,11.53c.62,0,1.26.42,1.26,1.2v.14c-.45,4.62-1.26,7.62-2.69,11.59-.17.53-.59.73-.98.73-.59,0-1.12-.39-1.12-1.04,0-.11,0-.25.06-.39,1.37-3.84,1.88-6.75,2.27-11.12.06-.76.64-1.12,1.2-1.12Z" fill="#fff"/>
  <path d="M243.86,23.85c0,.81-.67,1.29-1.29,1.29-.42,0-.81-.2-1.04-.76-1.79-4.54-2.97-6.83-4.12-8.62-.2,3.08-1.15,9.44-2.63,9.44-.45,0-.95-.36-.95-.92,0-.08.03-.2.06-.34,1.15-3.05,1.74-6.36,1.76-10.72-.03-.08-.06-.2-.06-.31,0-.67.62-1.23,1.26-1.23.31,0,.64.17.92.5,1.6,2.04,2.8,3.78,4.56,7.81.48-2.72,1.37-5.74,2.24-8.48.14-.48.53-.64.87-.64.45,0,.95.34.95.9,0,.08-.03.17-.06.31-1.26,3.95-2.49,8.34-2.49,11.59v.2Z" fill="#fff"/>
  <path d="M256.85,20.41c0,2.97-2.24,4.76-4.84,4.76-2.74,0-4.51-1.65-4.51-3.98,0-1.99,1.15-4.23,4.06-6.3-.78-.56-1.74-1.09-2.91-1.57-.34-.14-.45-.42-.45-.67,0-.42.25-.78.7-.78.11,0,.22.03.34.06,1.51.62,2.74,1.29,3.75,2.02,1.18-.67,2.55-1.37,4.2-2.02.11-.03.22-.06.31-.06.42,0,.73.36.73.78,0,.25-.14.53-.48.67-1.37.56-2.52,1.12-3.39,1.68,1.85,1.76,2.49,3.61,2.49,5.4ZM249.91,21.14c0,1.29.67,2.18,2.1,2.18,1.85,0,2.44-1.99,2.44-3.36,0-1.23-.36-2.58-1.57-3.86-2.35,1.93-2.97,3.81-2.97,5.04Z" fill="#fff"/>
  <path d="M3.42,11.46c.62,0,1.23.42,1.23,1.2v.11c-.25,2.86-1.06,4.84-1.6,6.64-.17.53-.56.76-1.01.76-.56,0-1.09-.39-1.09-1.04,0-.11.03-.25.06-.36.48-1.62.95-3.53,1.18-6.16.06-.78.64-1.15,1.23-1.15Z" fill="#fff"/>
  <path d="M8.89,12.52c.08-.73.64-1.06,1.2-1.06.64,0,1.26.42,1.26,1.2v.17c-1.6,12.38-3.42,16.21-10.05,16.21-.45,0-.7-.34-.7-.67,0-.36.25-.7.7-.7,5.77,0,6.44-5.71,7.34-13.1l.25-2.04Z" fill="#fff"/>
  <path d="M16.55,12.52c.08-.73.64-1.06,1.2-1.06.64,0,1.26.42,1.26,1.2v.17c-1.6,12.38-3.42,16.21-10.05,16.21-.45,0-.7-.34-.7-.67,0-.36.25-.7.7-.7,5.77,0,6.44-5.71,7.34-13.1l.25-2.04Z" fill="#fff"/>
  <path d="M23.36,18.03c.56,0,1.15.39,1.15,1.15,0,1.88-.5,3.3-1.68,5.4-.22.36-.56.5-.87.5-.56,0-1.06-.42-1.06-1.01,0-.14.03-.34.14-.53.92-1.65,1.15-2.8,1.15-4.37,0-.76.59-1.15,1.18-1.15ZM21.71,14.64c-.42,0-.73-.39-.73-.78,0-1.09,5.26-2.41,6.75-2.41,2.32,0,4,1.68,4,3.98,0,2.86-1.26,6.19-2.35,8.96-.2.5-.59.7-.95.7-.59,0-1.15-.42-1.15-1.06,0-.14.03-.28.11-.45.98-2.58,1.88-5.6,1.88-8.26,0-.87-.39-2.02-1.85-2.02-1.37,0-3.56.59-5.4,1.29-.11.03-.2.06-.31.06Z" fill="#fff"/>
  <path d="M41.32,18.82c-.5,0-.76-.45-.76-.87s.25-.9.76-.9h8.18c.48,0,.76.48.76.9s-.28.87-.76.87h-8.18Z" fill="#fff"/>
  <path d="M59.6,14.84c-.42,0-.73-.39-.73-.81,0-.28.11-.53.48-.7,2.52-1.15,4.51-1.88,6.16-1.88,2.66,0,3.81,1.57,3.81,3.89,0,2.91-1.51,6.3-2.74,9.07-.22.48-.59.67-.98.67-.56,0-1.15-.45-1.15-1.06,0-.14.03-.28.14-.48,1.18-2.6,2.27-5.85,2.27-8.51,0-.98-.36-1.74-1.51-1.74-1.2,0-3.02.39-5.38,1.46-.14.06-.25.08-.36.08Z" fill="#fff"/>
  <path d="M74.55,11.45c.62,0,1.26.42,1.26,1.2v.14c-.45,4.62-1.26,7.62-2.69,11.59-.17.53-.59.73-.98.73-.59,0-1.12-.39-1.12-1.04,0-.11,0-.25.06-.39,1.37-3.84,1.88-6.75,2.27-11.12.06-.76.64-1.12,1.2-1.12Z" fill="#fff"/>
</svg>
